<svg version="1" xmlns="http://www.w3.org/2000/svg" width="346.667" height="346.667" viewBox="0 0 260.000000 260.000000"><path d="M120.3 7c-2.9 1.5-7.6 4.7-10.5 7.1l-5.2 4.4-25.7.5c-14.2.3-25.9.7-26.1 1-.2.3-1.6 2-3.1 3.8-1.7 2.1-2.7 4.6-2.7 6.5 0 1.8-.9 4.5-2 6.2-1.1 1.6-2 4.2-2 5.8 0 1.5-.9 4.4-2 6.4-1.1 2.1-2 4.8-2 6 0 1.3-.9 4-2 6-1.1 2.1-2 4.3-2 4.9 0 1.3-7.2 8-11.5 10.8-1.7 1.1-6.1 4.2-9.8 6.9l-6.8 5.1.4 7c.2 3.9.9 8.7 1.6 10.6 2.5 6.9 3.4 9.6 4.9 15.4 1.7 6.5 1.7 6.5-3.8 24.1-3.8 12-3.9 21.8-.2 22.9 1 .4 3.6 2.2 5.8 4.2 2.1 1.9 5.5 4.4 7.4 5.4 1.9 1 5.1 3.4 7.1 5.3 3.8 3.6 8.9 13.1 8.9 16.7 0 1.1.9 3.8 2 6s2 5.2 2 6.7.9 4.1 2 5.8c1.1 1.6 2 4.5 2 6.2 0 3.7 5.5 10.2 8.7 10.4 1 0 11.5 0 23.5-.1 24.1-.2 24.2-.2 32.8 7.1 2.5 2.1 6 4.2 7.8 4.5 1.8.4 3.5 1.1 3.8 1.5 1 1.7 6.9.7 10.9-1.6 2.2-1.4 5.4-3.1 7.2-3.9 1.7-.9 3.3-1.9 3.5-2.3.1-.5 1.8-1.8 3.6-3.1 3.3-2.3 3.6-2.3 27.3-2 23.9.3 24.1.3 25.9-2 1-1.2 4.4-10.2 7.5-20 3.1-9.7 6.3-19.2 7.1-21 .8-1.8 1.4-3.9 1.4-4.7 0-.8 1.9-2.7 4.3-4.2 2.3-1.5 6.5-4.6 9.4-6.8 2.9-2.2 7-5.2 9.3-6.8 2.2-1.5 4.5-3.9 5.1-5.4 1.4-3.7.1-14.9-2.2-19.3-1.1-1.9-1.9-4.6-1.9-6 0-1.4-.9-3.9-2-5.5-2.5-3.8-2.5-7.5 0-12.5 1.1-2.2 2-4.9 2-6 0-1.1.9-3.8 2-6 1.1-2.1 2.3-6.9 2.6-10.7.6-6.5.5-7-2.1-10.1-1.5-1.8-4.1-4-5.8-4.8-3.3-1.7-3.3-1.8-9.2-7.1-2.2-2-5.4-4.2-7-4.9-3.8-1.6-4.6-3.5-15-36.6-2-6.4-4.6-12.6-5.6-13.7-1.9-2-2.9-2.1-26.5-2.1h-24.6l-4.1-3.4c-2.3-1.8-5.5-4.1-7.2-5-1.6-1-4.8-2.8-7-4.1-4.9-3-5.7-3-12.2.5zm34.3 22.4c7.8 2.7 21.5 9.6 29 14.7 10.3 6.9 23.2 20 28.5 28.9l5.1 8.4-2.2 1.8c-4.5 3.7-6.2 2.7-13.1-7.7-24.5-36.6-70.5-50.1-109.4-32.1-19.3 9-33.3 22.5-43 41.4-3.5 6.8-3.8 7.2-7.1 7.2-2 0-3.7-.6-4-1.3-.8-2.2 5.6-16.8 9.5-21.7 6.5-8.2 19.5-21.1 24.9-24.6 7-4.7 21.2-12.1 28.7-14.9 5.5-2.1 7.8-2.3 26.1-2.4 18.7-.1 20.5.1 27 2.3zM112 58.1c4.1 2.3 4.5 3 4.8 6.7.5 7.3-6 10.8-10.7 5.8-4.6-4.9-15.9-4-17.6 1.5-1 3.1 2.5 6 11.5 9.5 17.9 6.9 22.9 13 21.4 26.1-.6 4.9-.5 5.3 2 6.4 3.4 1.6 4.1.7 2.7-3.2-1.6-4.5-1.4-6.7 1-11.6 2.5-5.1 4.9-5.4 6.1-.7.4 1.7 1.5 3.7 2.3 4.4.8.7 1.5 1.8 1.5 2.4 0 1.3 9.5 5.6 12 5.5.8 0 3.5-1 6-2.2 3.1-1.5 4.6-2.9 4.8-4.6.4-2.6-2.9-6.7-6.2-7.7-5.1-1.4-15.2-5.7-16.7-7-.8-.8-2.1-1.4-2.8-1.4-.6 0-1.5-.8-1.8-1.8-.4-.9-1.5-2.9-2.6-4.4-1.6-2.1-1.9-3.8-1.5-8.6C129 62 137.6 55 150.4 55c7.9 0 18.1 3.8 19.2 7.2 1.1 3.6-.5 8.4-3.2 9.6-3.6 1.7-4.8 1.5-7.3-1.2-4.4-4.6-16-3.7-17.6 1.4-1 3.2 2.5 6.1 11.5 9.5 4.1 1.6 8.2 3.5 9.1 4.2.8.7 2 1.3 2.6 1.3 2 0 8.2 7.9 9.3 11.9.6 2.2.7 6.4.4 9.4l-.7 5.5 3.1.7c4.1.9 5.5 2.8 4.7 6.4-1.1 5.1-8.7 5.5-9.9.6-.7-2.9-2.5-2.8-8.4.6-3.7 2.1-15.1 3.5-20.6 2.5-1.9-.4-5.5-2.2-8-4.1-4.5-3.4-5.6-3.5-5.6-.4 0 5-6.9 6.6-9.7 2.1-.9-1.5-1.8-2.9-2-3.1-.1-.2-2.8.9-6 2.5-5 2.4-7 2.8-14.8 2.9-8.1 0-9.4-.3-13-2.6-6.8-4.5-10.5-9.9-10.5-15.3 0-3.2 2-9.3 3.5-10.8 1.3-1.3 3.4.4 4 3.2.3 1.6 1.3 3.4 2.1 4.1.8.6 1.4 1.7 1.4 2.4 0 1.1 9.7 5.5 12.2 5.5.5 0 3.2-1 5.9-2.1 4.2-1.9 4.9-2.5 4.9-5 0-3.7-2.5-6.2-8.1-8.2-11.7-4.2-13.4-4.9-13.9-5.6-.3-.3-1.6-1.4-3-2.2-2.9-1.9-7-9.5-7-13 0-7.2 4.9-14.6 12.1-18.2 5.3-2.7 18.9-1.9 24.9 1.4zm111 40.1c5.2 3.6 7.2 6.9 7.2 12.2.1 5.4-2 9-7.2 12-9.6 5.6-21.6-1.3-21.4-12.4 0-2.8.8-5.9 1.8-7.5 4.2-6.4 13.4-8.4 19.6-4.3zm-179.4 3.4c5 2.4 7.6 6.6 7.7 12.5.2 11.3-10.9 17.5-22.2 12.4-4.7-2.1-7.1-6.3-7.1-12.4 0-3.3.7-4.9 3.7-8.2 2.1-2.3 4.7-4.5 5.8-4.9 3.3-1.4 8.5-1.1 12.1.6zm61 29.8l2.8 2.3-1.2 9c-1.4 10.7-1.5 27.4-.3 35.8.5 3.3 1.2 9.8 1.6 14.5.8 10.8.1 11.8-8.1 12.6-5.7.6-6.3.5-7.4-1.5-.8-1.6-1.1-10.6-1.1-30v-27.8l-3.4-3.4c-1.9-1.9-3.5-3.8-3.5-4.3-.1-2.6 11.1-9.2 16.2-9.5.9-.1 2.9 1 4.4 2.3zm121.2 3.2c.5 9.8-8.9 39.1-15.8 48.9-4.5 6.5-19.8 21-27.5 26.1-7.1 4.8-18.7 10.4-28.3 13.9-6.4 2.3-8.2 2.5-25 2.5-15.4 0-19-.3-24.8-2.1-9.6-3-23.8-9.9-32-15.7-6.9-4.9-21.1-19.4-25.9-26.4-6.3-9.4-16.6-39.7-14.9-44.2.6-1.6 5-2.2 7-.8.6.4 2.1 5 3.4 10.2 9.9 41.4 45.4 70.2 86.5 70.2 28.8 0 56.5-14.7 72.7-38.7 8.1-12 12.5-24 16.3-44 .4-2.1 5.3-5.7 7-5.1.6.1 1.1 2.5 1.3 5.2zm-55.8-1.3c5.1 2.5 3 11-5.1 20.9-2.2 2.6-3.9 5-3.9 5.4 0 1 5 5.4 6 5.4.4 0 2 1.8 3.5 4.1 2.6 3.6 2.9 4.9 2.9 11.8 0 8-1.5 12-6.7 17.8-6.3 7.1-18.9 9.4-27.8 5-4.6-2.2-9.8-6.5-9.9-8 0-1.8 8.4-11.7 9.9-11.7 1 0 3.2 1.1 5.1 2.5 5 3.7 9.2 3.4 12.6-1 3.6-4.7 3.4-7.9-.6-12-2.8-2.9-4.3-3.5-9.3-4.1-3.2-.4-6.1-1.2-6.3-1.9-.9-2.3 1.5-6.1 8.6-13.2 4.3-4.3 6.9-7.7 6.4-8.4-.8-1.4-9.9-.5-11.9 1.1s-7.4 1.5-9.1-.2c-.8-.8-1.7-3.7-2-6.4-1-8.1-.3-8.4 18.9-8.4 11 0 17 .4 18.7 1.3z"/></svg>