<svg version="1" xmlns="http://www.w3.org/2000/svg" width="346.667" height="346.667" viewBox="0 0 260.000000 260.000000"><path d="M119.5 7.4c-3.3 1.8-7.6 4.7-9.5 6.5-1.9 1.8-4.5 3.7-5.8 4.2-1.3.5-13 .9-26 .9s-24.2.4-24.7.8C50.3 22 47 27.5 47 30.3c0 1.8-.9 4.5-2 6.2-1.1 1.6-2 4.2-2 5.8 0 1.5-.9 4.4-2 6.4-1.1 2.1-2 4.8-2 6 0 1.3-.9 4-2 6-1.1 2.1-2 4.3-2 4.9 0 1.3-7.2 8-11.5 10.8-1.7 1.1-6.1 4.2-9.8 6.9l-6.8 5.1.4 7c.2 3.9.9 8.4 1.5 10.1 2.7 7.2 6.2 19.6 6.2 22 0 1.5-1.1 6.1-2.5 10.3-1.4 4.2-3.2 9.8-4 12.3-.8 2.6-1.5 7.4-1.5 10.8 0 5.7.2 6.1 2.9 7.6 1.6.8 4.4 2.9 6.3 4.6 1.8 1.7 4.9 3.9 6.8 4.9 7.7 4 16 15.6 16 22.2 0 1.3.9 4 2 6.1 1.1 2 2 4.9 2 6.4 0 1.6.9 4.1 2 5.8 1.1 1.6 2 4.3 2 6 0 3.4 5.8 10.4 8.7 10.6 1 0 11.3 0 22.9-.1 17.4-.1 21.8.1 25 1.5 2.1.8 4.4 2.1 4.9 2.8 2.2 2.7 8.6 6.8 11.5 7.3 1.7.4 3.3 1.1 3.6 1.5 1 1.6 6.9.8 10.9-1.6 2.2-1.3 5.1-2.9 6.5-3.5 1.4-.6 3-1.7 3.5-2.3.6-.7 2.7-2.3 4.8-3.6 3.7-2.2 4.2-2.3 27.3-1.9 23.2.3 23.6.3 25.3-1.9 1-1.2 4.4-10.2 7.6-20 3.1-9.8 6.3-19.3 7.1-21.1.8-1.8 1.4-3.9 1.4-4.7 0-.8 1.9-2.7 4.3-4.2 2.3-1.5 6.5-4.6 9.4-6.8 2.9-2.2 7-5.2 9.3-6.8 2.2-1.5 4.5-3.9 5.1-5.4 1.4-3.7.1-14.9-2.2-19.3-1.1-1.9-1.9-4.6-1.9-6 0-1.4-.9-3.9-2-5.5-2.5-3.8-2.5-7.5 0-12.5 1.1-2.2 2-4.9 2-6 0-1.1.9-3.8 1.9-5.8 1.1-2.1 2.3-7 2.6-10.8.7-6.6.6-7.2-2-10.2-1.5-1.8-4.4-4.1-6.4-5.2-2-1-5.6-3.8-8.1-6.1s-6-4.8-7.7-5.5c-2.2-.9-3.5-2.3-3.9-4.2-.4-1.5-1.3-3.6-1.9-4.7-.7-1.1-1.6-3.7-2-5.9-.3-2.1-1.3-5.2-2-7-.8-1.7-3.1-8.4-5.1-14.8-2-6.4-4.5-12.6-5.5-13.7-1.9-2-2.9-2.1-26.8-2.1h-24.8l-3.4-3c-1.9-1.7-5-4-6.9-5.1-1.9-1.1-5.3-3.1-7.5-4.4-2.2-1.4-4.7-2.4-5.5-2.4-.8 0-4.2 1.5-7.5 3.3zm35.1 22c7.8 2.7 21.9 9.8 29.1 14.7 12.8 8.7 25.5 22.4 31.5 33.9 1.8 3.5 1.8 3.5-.3 5.2-1.2 1-3 1.8-4 1.8-2.3 0-3.4-1.2-11.2-12.3-11.9-17.2-29.3-29.1-50.7-34.8-11.9-3.2-30.1-3.1-41.5.1C81 45.4 61.4 61.5 49 85.9c-2.9 5.7-3.4 6.1-6.6 6.1-2 0-3.7-.6-4-1.3-.8-2.2 5.5-16.8 9.4-21.7 6.5-8.2 19.6-21.1 25.2-24.8 7.3-4.9 18.9-10.9 27.5-14.3 6.8-2.6 7.7-2.7 27.1-2.8 18.6-.1 20.5.1 27 2.3zM112 58.2c3.4 1.9 4.6 3.1 4.8 5.2.6 4.6-.6 7.5-3.8 9.1-2.8 1.4-3.1 1.4-6.2-1.4-6.1-5.3-16.5-4.7-18.3 1-1 3.1 2.6 6 11.5 9.4 4.1 1.6 8.2 3.4 9 4.1.8.6 2.4 1.4 3.5 1.8 2.8.8 7.6 7.2 8.6 11.5.5 2 .6 5.9.3 8.8-.6 4.9-.5 5.3 2 6.4 1.4.7 2.9 1 3.2.6.3-.3 0-2.8-.6-5.5-1.2-4.5-1.1-5.3.9-9.6 2.3-4.7 4.8-6 5.7-2.9 2 6.6 4.9 10.1 9.8 12.2 6.3 2.6 6.9 2.6 12.6-.2 3.1-1.5 4.6-2.9 4.8-4.6.4-2.9-3-6.8-7.2-8.1-7.9-2.4-13.8-4.8-15.4-6.3-1-1-2.3-1.7-2.9-1.7-.6 0-2.3-2.1-3.8-4.6-5.5-9.4-1.5-21.3 8.8-26.3 6.4-3.1 16.2-2.9 23.8.5 6.3 2.9 7.5 4.6 6.5 9.8-.4 2.2-1.5 3.7-3.2 4.4-3.6 1.7-4.5 1.5-7.5-1.4-2.2-2.1-3.7-2.6-8.4-2.7-4.9-.1-6 .2-7.6 2.2-1.1 1.3-1.9 2.9-1.9 3.5 0 2.2 4.4 5.2 12 8.1 4.1 1.6 8.2 3.4 9 4.1.8.6 2.5 1.5 3.6 1.8 2.6.8 7.1 7 8.4 11.7.6 1.9.8 5.7.4 8.6l-.6 5.2 3.8 1.8c3.5 1.7 3.9 2.3 3.7 5.2-.2 5.8-6.2 7.2-9.1 2.1-1.9-3.3-3.1-3.3-9 .1-3.7 2.1-15.1 3.5-20.6 2.5-1.9-.4-5.5-2.2-8-4.1-4.5-3.4-5.6-3.5-5.6-.4 0 5-6.9 6.6-9.7 2.1-.9-1.5-1.8-2.9-2-3.1-.1-.2-2.8.9-6 2.5-5 2.4-7 2.8-14.8 2.9-7.3 0-9.6-.4-12-1.9-10.3-6.7-13.6-14.3-10-22.9 2.3-5.5 4.4-5.7 6-.7 1.5 4.9 5.3 8.6 10.8 10.5 5.2 1.7 5.3 1.7 10.5-.5 4.5-2 5.2-2.6 5.2-5.1 0-3.7-2.5-6.2-8.1-8.2-11.7-4.2-13.4-4.9-13.9-5.6-.3-.3-1.6-1.4-3-2.2-2.9-1.9-7-9.5-7-13 0-7.2 4.9-14.6 12.1-18.2 5.1-2.7 18.8-1.8 24.9 1.5zm110 39.3c8.2 4.2 11.1 15.7 5.4 21.6-6.7 6.9-16.3 7.2-22.2.5-3.7-4.2-4.7-8.2-3.3-13.3 2.3-8.5 12.2-12.9 20.1-8.8zm-178 4.4c12.9 6.8 7.8 26.6-6.8 26.4-9.1-.1-14.3-4.5-15-12.6-.4-4.7-.1-5.7 2.4-8.6 5.9-7.1 12.6-8.9 19.4-5.2zm60.6 29.5l2.8 2.3-1.2 9c-1.4 10.7-1.5 27.4-.3 35.8.5 3.3 1.2 9.8 1.6 14.5.8 10.9.1 12-8.2 12.7-5.5.5-6.2.4-7.3-1.6-.8-1.5-1.1-10.8-1.1-30.3v-28l-3.5-3.1c-1.9-1.8-3.4-3.6-3.4-4.1 0-2.7 11.1-9.2 16.2-9.5.9-.1 2.9 1 4.4 2.3zm121.2 3.2c.5 9.7-8.9 38.9-15.8 48.9-4.3 6.2-17.9 19.3-26.2 25.2-6.9 4.9-19.3 11.1-29.8 14.9-6.2 2.2-8.2 2.4-24.8 2.4-15.4 0-19-.3-24.8-2.1-9.6-3-23.8-9.9-32-15.7-6.9-4.9-21.2-19.5-25.8-26.3-6.5-9.6-16.7-39.9-15-44.3.6-1.6 5-2.2 7-.8.6.4 2.1 5 3.4 10.2 8.1 33.6 32.4 58.8 65 67.6 13.4 3.6 29.6 3.6 42.9 0 26.8-7.3 48-25.3 59.4-50.6 2.7-6.2 5.9-17.4 8.2-29.5.4-2 5.2-5.5 7-5.1.6.2 1.1 2.5 1.3 5.2zm-55.8-1.3c3.6 1.8 3.7 6.1.4 12.8-1.5 3-4.2 7-6.1 8.9-1.8 1.9-3.3 4-3.3 4.6 0 .6 1.7 2.3 3.8 3.7 2 1.5 4.8 4.3 6.2 6.3 2.1 3.2 2.5 4.8 2.4 11.4 0 7.9-1.6 12-6.7 17.7-6.3 7.1-18.9 9.4-27.9 5-4-1.9-9.8-6.8-9.8-8.3 0-.3 1-1.9 2.3-3.6 6.2-8.8 7.3-9.3 12.7-5.3 3.3 2.4 8.4 3.3 10.5 1.7.6-.4 1.8-1.9 2.8-3.4 4.4-7-.5-14.1-10.6-15.3-3.1-.4-6-1.2-6.3-1.7-1.3-2.1.9-5.8 8.1-13.1 4.6-4.5 7.4-8.1 6.9-8.8-.8-1.3-9.9-.6-11.8 1-1.1.9-3.8 1.4-6.9 1.2-2.1-.1-4.7-5.6-4.7-10 0-5.6 1.4-6.1 19.3-6.1 11 0 17 .4 18.7 1.3z"/></svg>