<?xml version="1.0" encoding="UTF-8" standalone="no"?>
<svg
   xmlns:dc="http://purl.org/dc/elements/1.1/"
   xmlns:cc="http://creativecommons.org/ns#"
   xmlns:rdf="http://www.w3.org/1999/02/22-rdf-syntax-ns#"
   xmlns:svg="http://www.w3.org/2000/svg"
   xmlns="http://www.w3.org/2000/svg"
   xmlns:sodipodi="http://sodipodi.sourceforge.net/DTD/sodipodi-0.dtd"
   xmlns:inkscape="http://www.inkscape.org/namespaces/inkscape"
   width="360"
   height="360"
   viewBox="0 0 95.249998 95.250003"
   version="1.1"
   id="svg1801"
   inkscape:version="1.0 (4035a4fb49, 2020-05-01)"
   sodipodi:docname="RadialItemRing.svg">
  <defs
     id="defs1795" />
  <sodipodi:namedview
     inkscape:bbox-nodes="true"
     inkscape:snap-bbox="true"
     id="base"
     pagecolor="#ffffff"
     bordercolor="#666666"
     borderopacity="1.0"
     inkscape:pageopacity="0.0"
     inkscape:pageshadow="2"
     inkscape:zoom="2.8284271"
     inkscape:cx="183.73195"
     inkscape:cy="139.58008"
     inkscape:document-units="px"
     inkscape:current-layer="layer1"
     inkscape:document-rotation="0"
     showgrid="false"
     showguides="true"
     inkscape:guide-bbox="true"
     inkscape:snap-grids="true"
     inkscape:snap-global="true"
     inkscape:snap-midpoints="true"
     units="px"
     inkscape:window-width="1920"
     inkscape:window-height="1057"
     inkscape:window-x="-8"
     inkscape:window-y="-8"
     inkscape:window-maximized="1">
    <sodipodi:guide
       position="0,297"
       orientation="0,1"
       id="guide1803"
       inkscape:label=""
       inkscape:locked="false"
       inkscape:color="rgb(0,0,255)" />
    <sodipodi:guide
       position="0.26458333,94.985417"
       orientation="0,1"
       id="guide1805"
       inkscape:label=""
       inkscape:locked="false"
       inkscape:color="rgb(0,0,255)" />
    <sodipodi:guide
       position="0.26458333,94.985417"
       orientation="-1,0"
       id="guide1807"
       inkscape:label=""
       inkscape:locked="false"
       inkscape:color="rgb(0,0,255)" />
    <sodipodi:guide
       position="0,94.985417"
       orientation="-1,0"
       id="guide1809"
       inkscape:label=""
       inkscape:locked="false"
       inkscape:color="rgb(0,0,255)" />
    <sodipodi:guide
       position="13.49375,94.985417"
       orientation="-1,0"
       id="guide1811"
       inkscape:label=""
       inkscape:locked="false"
       inkscape:color="rgb(0,0,255)" />
    <sodipodi:guide
       position="0.26458333,81.75625"
       orientation="0,1"
       id="guide1813"
       inkscape:label=""
       inkscape:locked="false"
       inkscape:color="rgb(0,0,255)" />
    <sodipodi:guide
       position="95.25,95.25"
       orientation="-1,0"
       id="guide1815"
       inkscape:label=""
       inkscape:locked="false"
       inkscape:color="rgb(0,0,255)" />
    <sodipodi:guide
       position="94.985417,94.985417"
       orientation="-1,0"
       id="guide1817"
       inkscape:label=""
       inkscape:locked="false"
       inkscape:color="rgb(0,0,255)" />
    <sodipodi:guide
       position="81.75625,94.985417"
       orientation="-1,0"
       id="guide1819"
       inkscape:label=""
       inkscape:locked="false"
       inkscape:color="rgb(0,0,255)" />
    <sodipodi:guide
       position="0,0"
       orientation="0,1"
       id="guide1821"
       inkscape:label=""
       inkscape:locked="false"
       inkscape:color="rgb(0,0,255)" />
    <sodipodi:guide
       position="0.26458333,0.26458333"
       orientation="0,1"
       id="guide1823"
       inkscape:label=""
       inkscape:locked="false"
       inkscape:color="rgb(0,0,255)" />
    <sodipodi:guide
       position="0.26458333,13.49375"
       orientation="0,1"
       id="guide1825"
       inkscape:label=""
       inkscape:locked="false"
       inkscape:color="rgb(0,0,255)" />
    <sodipodi:guide
       position="13.758333,94.985417"
       orientation="-1,0"
       id="guide1829"
       inkscape:label=""
       inkscape:locked="false"
       inkscape:color="rgb(0,0,255)" />
    <sodipodi:guide
       position="0.26458333,81.491667"
       orientation="0,1"
       id="guide1831"
       inkscape:label=""
       inkscape:locked="false"
       inkscape:color="rgb(0,0,255)" />
    <sodipodi:guide
       position="0.26458333,13.758333"
       orientation="0,1"
       id="guide1833"
       inkscape:label=""
       inkscape:locked="false"
       inkscape:color="rgb(0,0,255)" />
    <sodipodi:guide
       position="81.491667,94.985417"
       orientation="-1,0"
       id="guide1835"
       inkscape:label=""
       inkscape:locked="false"
       inkscape:color="rgb(0,0,255)" />
    <sodipodi:guide
       position="14.022917,94.985417"
       orientation="-1,0"
       id="guide1837"
       inkscape:label=""
       inkscape:locked="false"
       inkscape:color="rgb(0,0,255)" />
    <sodipodi:guide
       position="0.26458333,81.227084"
       orientation="0,1"
       id="guide1839"
       inkscape:label=""
       inkscape:locked="false"
       inkscape:color="rgb(0,0,255)" />
    <sodipodi:guide
       position="0.26458333,14.022917"
       orientation="0,1"
       id="guide1841"
       inkscape:label=""
       inkscape:locked="false"
       inkscape:color="rgb(0,0,255)" />
    <sodipodi:guide
       position="81.227084,94.985417"
       orientation="-1,0"
       id="guide1843"
       inkscape:label=""
       inkscape:locked="false"
       inkscape:color="rgb(0,0,255)" />
    <sodipodi:guide
       position="14.2875,94.985417"
       orientation="-1,0"
       id="guide1845"
       inkscape:label=""
       inkscape:locked="false"
       inkscape:color="rgb(0,0,255)" />
    <sodipodi:guide
       position="0.26458333,80.9625"
       orientation="0,1"
       id="guide1847"
       inkscape:label=""
       inkscape:locked="false"
       inkscape:color="rgb(0,0,255)" />
    <sodipodi:guide
       position="0.26458333,14.2875"
       orientation="0,1"
       id="guide1849"
       inkscape:label=""
       inkscape:locked="false"
       inkscape:color="rgb(0,0,255)" />
    <sodipodi:guide
       position="80.9625,94.985417"
       orientation="-1,0"
       id="guide1851"
       inkscape:label=""
       inkscape:locked="false"
       inkscape:color="rgb(0,0,255)" />
    <sodipodi:guide
       position="0.26458333,67.733334"
       orientation="0,1"
       id="guide1853"
       inkscape:label=""
       inkscape:locked="false"
       inkscape:color="rgb(0,0,255)" />
    <sodipodi:guide
       position="27.516667,94.985417"
       orientation="-1,0"
       id="guide1855"
       inkscape:label=""
       inkscape:locked="false"
       inkscape:color="rgb(0,0,255)" />
    <sodipodi:guide
       position="67.733334,94.985417"
       orientation="-1,0"
       id="guide1857"
       inkscape:label=""
       inkscape:locked="false"
       inkscape:color="rgb(0,0,255)" />
    <sodipodi:guide
       position="0.26458333,27.516667"
       orientation="0,1"
       id="guide1859"
       inkscape:label=""
       inkscape:locked="false"
       inkscape:color="rgb(0,0,255)" />
    <sodipodi:guide
       position="27.78125,94.985417"
       orientation="-1,0"
       id="guide1861"
       inkscape:label=""
       inkscape:locked="false"
       inkscape:color="rgb(0,0,255)" />
    <sodipodi:guide
       position="67.46875,94.985417"
       orientation="-1,0"
       id="guide1863"
       inkscape:label=""
       inkscape:locked="false"
       inkscape:color="rgb(0,0,255)" />
    <sodipodi:guide
       position="0.26458333,67.46875"
       orientation="0,1"
       id="guide1865"
       inkscape:label=""
       inkscape:locked="false"
       inkscape:color="rgb(0,0,255)" />
    <sodipodi:guide
       position="0.26458333,27.78125"
       orientation="0,1"
       id="guide1867"
       inkscape:label=""
       inkscape:locked="false"
       inkscape:color="rgb(0,0,255)" />
    <sodipodi:guide
       position="67.204167,94.985417"
       orientation="-1,0"
       id="guide1869"
       inkscape:label=""
       inkscape:locked="false"
       inkscape:color="rgb(0,0,255)" />
    <sodipodi:guide
       position="28.045833,94.985417"
       orientation="-1,0"
       id="guide1871"
       inkscape:label=""
       inkscape:locked="false"
       inkscape:color="rgb(0,0,255)" />
    <sodipodi:guide
       position="0.26458333,67.204167"
       orientation="0,1"
       id="guide1873"
       inkscape:label=""
       inkscape:locked="false"
       inkscape:color="rgb(0,0,255)" />
    <sodipodi:guide
       position="0.26458333,28.045833"
       orientation="0,1"
       id="guide1875"
       inkscape:label=""
       inkscape:locked="false"
       inkscape:color="rgb(0,0,255)" />
  </sodipodi:namedview>
  <metadata
     id="metadata1798">
    <rdf:RDF>
      <cc:Work
         rdf:about="">
        <dc:format>image/svg+xml</dc:format>
        <dc:type
           rdf:resource="http://purl.org/dc/dcmitype/StillImage" />
        <dc:title></dc:title>
      </cc:Work>
    </rdf:RDF>
  </metadata>
  <g
     inkscape:label="Layer 1"
     inkscape:groupmode="layer"
     id="layer1">
    <path
       id="path4872"
       style="fill:#d9d9d9;fill-opacity:1;stroke-width:1.0704"
       d="M 47.621383,14.287501 A 33.337503,33.337503 0 0 0 14.283883,47.625 33.337503,33.337503 0 0 0 47.621383,80.962501 33.337503,33.337503 0 0 0 80.958883,47.625 33.337503,33.337503 0 0 0 47.621383,14.287501 Z m 0,13.229167 A 20.108334,20.10833 0 0 1 67.729716,47.625 20.108334,20.10833 0 0 1 47.621383,67.733334 20.108334,20.10833 0 0 1 27.513049,47.625 20.108334,20.10833 0 0 1 47.621383,27.516668 Z" />
    <path
       id="path4908"
       style="color:#000000;font-style:normal;font-variant:normal;font-weight:normal;font-stretch:normal;font-size:medium;line-height:normal;font-family:sans-serif;font-variant-ligatures:normal;font-variant-position:normal;font-variant-caps:normal;font-variant-numeric:normal;font-variant-alternates:normal;font-variant-east-asian:normal;font-feature-settings:normal;font-variation-settings:normal;text-indent:0;text-align:start;text-decoration:none;text-decoration-line:none;text-decoration-style:solid;text-decoration-color:#000000;letter-spacing:normal;word-spacing:normal;text-transform:none;writing-mode:lr-tb;direction:ltr;text-orientation:mixed;dominant-baseline:auto;baseline-shift:baseline;text-anchor:start;white-space:normal;shape-padding:0;shape-margin:0;inline-size:0;clip-rule:nonzero;display:inline;overflow:visible;visibility:visible;opacity:1;isolation:auto;mix-blend-mode:normal;color-interpolation:sRGB;color-interpolation-filters:linearRGB;solid-color:#000000;solid-opacity:1;vector-effect:none;fill:#f0f0f0;fill-opacity:1;fill-rule:nonzero;stroke:none;stroke-width:1.09525px;stroke-linecap:butt;stroke-linejoin:miter;stroke-miterlimit:4;stroke-dasharray:none;stroke-dashoffset:0;stroke-opacity:1;color-rendering:auto;image-rendering:auto;shape-rendering:auto;text-rendering:auto;enable-background:accumulate;stop-color:#000000;stop-opacity:1"
       d="m 47.621383,14.287501 a 33.337503,33.337503 0 0 0 -8.409306,1.07797 h 16.817579 a 33.337503,33.337503 0 0 0 -8.408273,-1.07797 z m -11.6365,2.09703 a 33.337503,33.337503 0 0 0 -2.600875,1.096057 h 28.474231 a 33.337503,33.337503 0 0 0 -2.599841,-1.096057 z m -4.587317,2.117183 a 33.337503,33.337503 0 0 0 -1.827794,1.096057 h 36.102705 a 33.337503,33.337503 0 0 0 -1.827278,-1.096057 z m -3.322277,2.117184 a 33.337503,33.337503 0 0 0 -1.43092,1.096057 h 41.954546 a 33.337503,33.337503 0 0 0 -1.431439,-1.096057 z m -2.632915,2.117183 a 33.337503,33.337503 0 0 0 -1.169437,1.09399 h 46.697409 a 33.337503,33.337503 0 0 0 -1.169956,-1.09399 z m -2.167826,2.115633 a 33.337503,33.337503 0 0 0 -0.980302,1.09554 h 50.653757 a 33.337503,33.337503 0 0 0 -0.979786,-1.09554 z m -1.820044,2.117184 a 33.337503,33.337503 0 0 0 -0.82889,1.095539 h 22.335072 a 20.108334,20.10833 0 0 1 4.660697,-0.547769 20.108334,20.10833 0 0 1 4.660696,0.547769 h 22.334556 a 33.337503,33.337503 0 0 0 -0.828373,-1.095539 z m -1.540474,2.117183 a 33.337503,33.337503 0 0 0 -0.702283,1.095542 H 37.61786 a 20.108334,20.10833 0 0 1 2.216401,-1.095542 z m 35.495508,0 a 20.108334,20.10833 0 0 1 2.215886,1.095542 H 76.031018 A 33.337503,33.337503 0 0 0 75.328219,29.086081 Z M 18.6092,31.203263 a 33.337503,33.337503 0 0 0 -0.592212,1.093476 h 16.589686 a 20.108334,20.10833 0 0 1 1.409732,-1.093476 z m 40.617159,0 a 20.108334,20.10833 0 0 1 1.410251,1.093476 H 77.225776 A 33.337503,33.337503 0 0 0 76.633564,31.203263 Z M 17.510042,33.31838 a 33.337503,33.337503 0 0 0 -0.496094,1.095541 h 15.448154 a 20.108334,20.10833 0 0 1 1.028877,-1.095541 z m 44.241228,0 a 20.108334,20.10833 0 0 1 1.029394,1.095541 h 15.448669 a 33.337503,33.337503 0 0 0 -0.49661,-1.095541 z m -45.159001,2.117185 a 33.337503,33.337503 0 0 0 -0.408244,1.095539 h 14.666804 a 20.108334,20.10833 0 0 1 0.778248,-1.095539 z m 47.021419,0 a 20.108334,20.10833 0 0 1 0.778764,1.095539 H 79.05874 a 33.337503,33.337503 0 0 0 -0.408244,-1.095539 z m -47.771761,2.117183 a 33.337503,33.337503 0 0 0 -0.326595,1.095541 h 14.112833 a 20.108334,20.10833 0 0 1 0.58963,-1.095541 z m 49.183043,0 a 20.108334,20.10833 0 0 1 0.58963,1.095541 H 79.727432 A 33.337503,33.337503 0 0 0 79.400839,37.552748 Z M 15.247131,39.66993 a 33.337503,33.337503 0 0 0 -0.249597,1.093992 h 13.722677 a 20.108334,20.10833 0 0 1 0.433564,-1.093992 z m 50.841859,0 a 20.108334,20.10833 0 0 1 0.43408,1.093992 H 80.24523 A 33.337503,33.337503 0 0 0 79.995635,39.66993 Z m -51.289377,2.115117 a 33.337503,33.337503 0 0 0 -0.176216,1.096056 h 13.457575 a 20.108334,20.10833 0 0 1 0.299207,-1.096056 z m 52.062973,0 a 20.108334,20.10833 0 0 1 0.299723,1.096056 h 13.457576 a 33.337503,33.337503 0 0 0 -0.176733,-1.096056 z m -52.369931,2.117184 a 33.337503,33.337503 0 0 0 -0.10542,1.096057 h 13.298412 a 20.108334,20.10833 0 0 1 0.175184,-1.096057 z m 52.889279,0 a 20.108334,20.10833 0 0 1 0.175184,1.096057 H 80.855013 A 33.337503,33.337503 0 0 0 80.750111,43.902231 Z M 14.32264,46.019413 a 33.337503,33.337503 0 0 0 -0.03462,1.096058 h 13.23175 a 20.108334,20.10833 0 0 1 0.05788,-1.096058 z m 53.342481,0 a 20.108334,20.10833 0 0 1 0.05788,1.096058 h 13.232268 a 33.337503,33.337503 0 0 0 -0.03514,-1.096058 z M 14.2875,48.13453 a 33.337503,33.337503 0 0 0 0.03514,1.096057 h 13.255004 a 20.108334,20.10833 0 0 1 -0.05788,-1.096057 z m 53.435498,0 a 20.108334,20.10833 0 0 1 -0.05788,1.096057 h 13.255006 a 33.337503,33.337503 0 0 0 0.03462,-1.096057 z m -53.335246,2.117182 a 33.337503,33.337503 0 0 0 0.104903,1.096058 h 13.368176 a 20.108334,20.10833 0 0 1 -0.175184,-1.096058 z m 53.169366,0 a 20.108334,20.10833 0 0 1 -0.175184,1.096058 h 13.368177 a 33.337503,33.337503 0 0 0 0.10542,-1.096058 z M 14.62288,52.368898 a 33.337503,33.337503 0 0 0 0.176733,1.096057 h 13.580566 a 20.108334,20.10833 0 0 1 -0.299723,-1.096057 z m 52.538913,0 a 20.108334,20.10833 0 0 1 -0.299207,1.096057 h 13.580566 a 33.337503,33.337503 0 0 0 0.176217,-1.096057 z M 14.997534,54.48608 a 33.337503,33.337503 0 0 0 0.249597,1.093991 h 13.906644 a 20.108334,20.10833 0 0 1 -0.43408,-1.093991 z m 51.52502,0 A 20.108334,20.10833 0 0 1 66.08899,55.580071 H 79.995635 A 33.337503,33.337503 0 0 0 80.24523,54.48608 Z m -51.007222,2.115632 a 33.337503,33.337503 0 0 0 0.326595,1.095542 h 14.375868 a 20.108334,20.10833 0 0 1 -0.58963,-1.095542 z m 50.099268,0 a 20.108334,20.10833 0 0 1 -0.58963,1.095542 h 14.375869 a 33.337503,33.337503 0 0 0 0.326593,-1.095542 z m -49.430575,2.117186 a 33.337503,33.337503 0 0 0 0.408244,1.095539 h 15.036808 a 20.108334,20.10833 0 0 1 -0.778764,-1.095539 z m 48.207911,0 a 20.108334,20.10833 0 0 1 -0.778248,1.095539 H 78.650496 A 33.337503,33.337503 0 0 0 79.05874,58.718898 Z M 17.013432,60.83608 a 33.337503,33.337503 0 0 0 0.49661,1.095542 H 33.491495 A 20.108334,20.10833 0 0 1 32.462102,60.83608 Z m 45.767232,0 a 20.108334,20.10833 0 0 1 -1.028878,1.095542 h 15.980937 a 33.337503,33.337503 0 0 0 0.496094,-1.095542 z m -44.763676,2.117183 a 33.337503,33.337503 0 0 0 0.592212,1.093475 h 17.407206 a 20.108334,20.10833 0 0 1 -1.410251,-1.093475 z m 42.619103,0 a 20.108334,20.10833 0 0 1 -1.409732,1.093475 h 17.407205 a 33.337503,33.337503 0 0 0 0.592212,-1.093475 z m -41.424344,2.115116 a 33.337503,33.337503 0 0 0 0.7028,1.095542 h 19.91868 a 20.108334,20.10833 0 0 1 -2.215886,-1.095542 z m 38.413158,0 a 20.108334,20.10833 0 0 1 -2.216401,1.095542 h 19.920231 a 33.337503,33.337503 0 0 0 0.702283,-1.095542 z m -36.998774,2.117185 a 33.337503,33.337503 0 0 0 0.828373,1.095539 h 52.333758 a 33.337503,33.337503 0 0 0 0.828889,-1.095539 H 52.282079 a 20.108334,20.10833 0 0 1 -4.660696,0.54777 20.108334,20.10833 0 0 1 -4.660697,-0.54777 z m 1.668632,2.117183 a 33.337503,33.337503 0 0 0 0.979785,1.095542 h 48.693669 a 33.337503,33.337503 0 0 0 0.980302,-1.095542 z m 1.977657,2.117183 a 33.337503,33.337503 0 0 0 1.169954,1.093991 H 69.80039 a 33.337503,33.337503 0 0 0 1.169437,-1.093991 z m 2.37143,2.115116 a 33.337503,33.337503 0 0 0 1.431439,1.096057 h 39.092187 a 33.337503,33.337503 0 0 0 1.43092,-1.096057 z m 2.926438,2.117185 a 33.337503,33.337503 0 0 0 1.827278,1.096058 h 32.447633 a 33.337503,33.337503 0 0 0 1.827794,-1.096058 z m 3.814238,2.117183 a 33.337503,33.337503 0 0 0 2.599841,1.096057 h 23.273515 a 33.337503,33.337503 0 0 0 2.600875,-1.096057 z m 5.828583,2.115116 a 33.337503,33.337503 0 0 0 8.408274,1.077971 33.337503,33.337503 0 0 0 8.409305,-1.077971 z" />
    <path
       id="path4865"
       style="fill:#000000;fill-opacity:1;stroke-width:1.63555"
       d="M 47.492708,14.022918 A 33.602081,33.602081 0 0 0 14.019299,47.625 33.602081,33.602081 0 0 0 47.621383,81.227084 33.602081,33.602081 0 0 0 81.223466,47.625 33.602081,33.602081 0 0 0 47.621383,14.022918 a 33.602081,33.602081 0 0 0 -0.128675,0 z m 0.128675,0.264583 A 33.337498,33.337503 0 0 1 80.958883,47.625 33.337498,33.337503 0 0 1 47.621383,80.962501 33.337498,33.337503 0 0 1 14.283883,47.625 33.337498,33.337503 0 0 1 47.621383,14.287501 Z" />
  </g>
</svg>
