<?xml version="1.0" encoding="UTF-8" standalone="no"?>
<svg
   xmlns:dc="http://purl.org/dc/elements/1.1/"
   xmlns:cc="http://creativecommons.org/ns#"
   xmlns:rdf="http://www.w3.org/1999/02/22-rdf-syntax-ns#"
   xmlns:svg="http://www.w3.org/2000/svg"
   xmlns="http://www.w3.org/2000/svg"
   xmlns:sodipodi="http://sodipodi.sourceforge.net/DTD/sodipodi-0.dtd"
   xmlns:inkscape="http://www.inkscape.org/namespaces/inkscape"
   width="360"
   height="360"
   viewBox="0 0 95.249998 95.250003"
   version="1.1"
   id="svg1801"
   inkscape:version="1.0 (4035a4fb49, 2020-05-01)"
   sodipodi:docname="RadialActionRing.svg">
  <defs
     id="defs1795" />
  <sodipodi:namedview
     inkscape:pagecheckerboard="true"
     inkscape:bbox-nodes="true"
     inkscape:bbox-paths="true"
     inkscape:snap-bbox="true"
     inkscape:snap-page="false"
     id="base"
     pagecolor="#ffffff"
     bordercolor="#666666"
     borderopacity="1.0"
     inkscape:pageopacity="0.0"
     inkscape:pageshadow="2"
     inkscape:zoom="2.8284271"
     inkscape:cx="60.072915"
     inkscape:cy="87.981379"
     inkscape:document-units="px"
     inkscape:current-layer="layer1"
     inkscape:document-rotation="0"
     showgrid="false"
     showguides="true"
     inkscape:guide-bbox="true"
     inkscape:snap-grids="true"
     inkscape:snap-global="true"
     inkscape:snap-midpoints="false"
     units="px"
     inkscape:window-width="1375"
     inkscape:window-height="1041"
     inkscape:window-x="342"
     inkscape:window-y="0"
     inkscape:window-maximized="0"
     inkscape:snap-object-midpoints="false"
     inkscape:snap-bbox-edge-midpoints="true">
    <sodipodi:guide
       position="0,297"
       orientation="0,1"
       id="guide1803"
       inkscape:label=""
       inkscape:locked="false"
       inkscape:color="rgb(0,0,255)" />
    <sodipodi:guide
       position="0.26458333,94.985417"
       orientation="0,1"
       id="guide1805"
       inkscape:label=""
       inkscape:locked="false"
       inkscape:color="rgb(0,0,255)" />
    <sodipodi:guide
       position="0.26458333,94.985417"
       orientation="-1,0"
       id="guide1807"
       inkscape:label=""
       inkscape:locked="false"
       inkscape:color="rgb(0,0,255)" />
    <sodipodi:guide
       position="0,94.985417"
       orientation="-1,0"
       id="guide1809"
       inkscape:label=""
       inkscape:locked="false"
       inkscape:color="rgb(0,0,255)" />
    <sodipodi:guide
       position="13.49375,94.985417"
       orientation="-1,0"
       id="guide1811"
       inkscape:label=""
       inkscape:locked="false"
       inkscape:color="rgb(0,0,255)" />
    <sodipodi:guide
       position="0.26458333,81.75625"
       orientation="0,1"
       id="guide1813"
       inkscape:label=""
       inkscape:locked="false"
       inkscape:color="rgb(0,0,255)" />
    <sodipodi:guide
       position="95.25,95.25"
       orientation="-1,0"
       id="guide1815"
       inkscape:label=""
       inkscape:locked="false"
       inkscape:color="rgb(0,0,255)" />
    <sodipodi:guide
       position="94.985417,94.985417"
       orientation="-1,0"
       id="guide1817"
       inkscape:label=""
       inkscape:locked="false"
       inkscape:color="rgb(0,0,255)" />
    <sodipodi:guide
       position="81.75625,94.985417"
       orientation="-1,0"
       id="guide1819"
       inkscape:label=""
       inkscape:locked="false"
       inkscape:color="rgb(0,0,255)" />
    <sodipodi:guide
       position="0,0"
       orientation="0,1"
       id="guide1821"
       inkscape:label=""
       inkscape:locked="false"
       inkscape:color="rgb(0,0,255)" />
    <sodipodi:guide
       position="94.985417,0.26458333"
       orientation="0,1"
       id="guide1823"
       inkscape:label=""
       inkscape:locked="false"
       inkscape:color="rgb(0,0,255)" />
    <sodipodi:guide
       position="0.26458333,13.49375"
       orientation="0,1"
       id="guide1825"
       inkscape:label=""
       inkscape:locked="false"
       inkscape:color="rgb(0,0,255)" />
    <sodipodi:guide
       position="13.758333,94.985417"
       orientation="-1,0"
       id="guide1829"
       inkscape:label=""
       inkscape:locked="false"
       inkscape:color="rgb(0,0,255)" />
    <sodipodi:guide
       position="0.26458333,81.491667"
       orientation="0,1"
       id="guide1831"
       inkscape:label=""
       inkscape:locked="false"
       inkscape:color="rgb(0,0,255)" />
    <sodipodi:guide
       position="0.26458333,13.758333"
       orientation="0,1"
       id="guide1833"
       inkscape:label=""
       inkscape:locked="false"
       inkscape:color="rgb(0,0,255)" />
    <sodipodi:guide
       position="81.491667,94.985417"
       orientation="-1,0"
       id="guide1835"
       inkscape:label=""
       inkscape:locked="false"
       inkscape:color="rgb(0,0,255)" />
    <sodipodi:guide
       position="14.022917,94.985417"
       orientation="-1,0"
       id="guide1837"
       inkscape:label=""
       inkscape:locked="false"
       inkscape:color="rgb(0,0,255)" />
    <sodipodi:guide
       position="0.26458333,81.227084"
       orientation="0,1"
       id="guide1839"
       inkscape:label=""
       inkscape:locked="false"
       inkscape:color="rgb(0,0,255)" />
    <sodipodi:guide
       position="0.26458333,14.022917"
       orientation="0,1"
       id="guide1841"
       inkscape:label=""
       inkscape:locked="false"
       inkscape:color="rgb(0,0,255)" />
    <sodipodi:guide
       position="81.227084,94.985417"
       orientation="-1,0"
       id="guide1843"
       inkscape:label=""
       inkscape:locked="false"
       inkscape:color="rgb(0,0,255)" />
    <sodipodi:guide
       position="14.2875,94.985417"
       orientation="-1,0"
       id="guide1845"
       inkscape:label=""
       inkscape:locked="false"
       inkscape:color="rgb(0,0,255)" />
    <sodipodi:guide
       position="0.26458333,80.9625"
       orientation="0,1"
       id="guide1847"
       inkscape:label=""
       inkscape:locked="false"
       inkscape:color="rgb(0,0,255)" />
    <sodipodi:guide
       position="0.26458333,14.2875"
       orientation="0,1"
       id="guide1849"
       inkscape:label=""
       inkscape:locked="false"
       inkscape:color="rgb(0,0,255)" />
    <sodipodi:guide
       position="80.9625,94.985417"
       orientation="-1,0"
       id="guide1851"
       inkscape:label=""
       inkscape:locked="false"
       inkscape:color="rgb(0,0,255)" />
    <sodipodi:guide
       position="0.26458333,67.733334"
       orientation="0,1"
       id="guide1853"
       inkscape:label=""
       inkscape:locked="false"
       inkscape:color="rgb(0,0,255)" />
    <sodipodi:guide
       position="67.733334,94.985417"
       orientation="-1,0"
       id="guide1857"
       inkscape:label=""
       inkscape:locked="false"
       inkscape:color="rgb(0,0,255)" />
    <sodipodi:guide
       position="0.26458333,27.516667"
       orientation="0,1"
       id="guide1859"
       inkscape:label=""
       inkscape:locked="false"
       inkscape:color="rgb(0,0,255)" />
    <sodipodi:guide
       position="27.78125,94.985417"
       orientation="-1,0"
       id="guide1861"
       inkscape:label=""
       inkscape:locked="false"
       inkscape:color="rgb(0,0,255)" />
    <sodipodi:guide
       position="67.46875,94.985417"
       orientation="-1,0"
       id="guide1863"
       inkscape:label=""
       inkscape:locked="false"
       inkscape:color="rgb(0,0,255)" />
    <sodipodi:guide
       position="0.26458333,67.46875"
       orientation="0,1"
       id="guide1865"
       inkscape:label=""
       inkscape:locked="false"
       inkscape:color="rgb(0,0,255)" />
    <sodipodi:guide
       position="0.26458333,27.78125"
       orientation="0,1"
       id="guide1867"
       inkscape:label=""
       inkscape:locked="false"
       inkscape:color="rgb(0,0,255)" />
    <sodipodi:guide
       position="67.204167,94.985417"
       orientation="-1,0"
       id="guide1869"
       inkscape:label=""
       inkscape:locked="false"
       inkscape:color="rgb(0,0,255)" />
    <sodipodi:guide
       position="28.045833,94.985417"
       orientation="-1,0"
       id="guide1871"
       inkscape:label=""
       inkscape:locked="false"
       inkscape:color="rgb(0,0,255)" />
    <sodipodi:guide
       position="0.26458333,67.204167"
       orientation="0,1"
       id="guide1873"
       inkscape:label=""
       inkscape:locked="false"
       inkscape:color="rgb(0,0,255)" />
    <sodipodi:guide
       position="0.26458333,28.045833"
       orientation="0,1"
       id="guide1875"
       inkscape:label=""
       inkscape:locked="false"
       inkscape:color="rgb(0,0,255)" />
    <sodipodi:guide
       position="13.229167,94.985417"
       orientation="-1,0"
       id="guide1881"
       inkscape:label=""
       inkscape:locked="false"
       inkscape:color="rgb(0,0,255)" />
    <sodipodi:guide
       position="0.26458333,82.020834"
       orientation="0,1"
       id="guide1883"
       inkscape:label=""
       inkscape:locked="false"
       inkscape:color="rgb(0,0,255)" />
    <sodipodi:guide
       position="0.26458333,13.229167"
       orientation="0,1"
       id="guide1885"
       inkscape:label=""
       inkscape:locked="false"
       inkscape:color="rgb(0,0,255)" />
    <sodipodi:guide
       position="82.020834,94.985417"
       orientation="-1,0"
       id="guide1887"
       inkscape:label=""
       inkscape:locked="false"
       inkscape:color="rgb(0,0,255)" />
    <sodipodi:guide
       inkscape:color="rgb(0,0,255)"
       inkscape:locked="false"
       inkscape:label=""
       id="guide2866"
       orientation="0,1"
       position="0,95.25" />
    <sodipodi:guide
       position="47.625,47.625"
       orientation="0,1"
       id="guide1702"
       inkscape:label=""
       inkscape:locked="false"
       inkscape:color="rgb(0,0,255)" />
    <sodipodi:guide
       position="0.26458333,0.52916667"
       orientation="0,1"
       id="guide4133"
       inkscape:label=""
       inkscape:locked="false"
       inkscape:color="rgb(0,0,255)" />
    <sodipodi:guide
       position="0.26458333,94.720834"
       orientation="0,1"
       id="guide4135"
       inkscape:label=""
       inkscape:locked="false"
       inkscape:color="rgb(0,0,255)" />
  </sodipodi:namedview>
  <metadata
     id="metadata1798">
    <rdf:RDF>
      <cc:Work
         rdf:about="">
        <dc:format>image/svg+xml</dc:format>
        <dc:type
           rdf:resource="http://purl.org/dc/dcmitype/StillImage" />
        <dc:title></dc:title>
      </cc:Work>
    </rdf:RDF>
  </metadata>
  <g
     inkscape:label="Layer 1"
     inkscape:groupmode="layer"
     id="layer1">
    <path
       id="path4153"
       style="fill:#f0f0f0;fill-opacity:1;stroke-width:1.0028"
       d="M 180 1 A 179 179.00001 0 0 0 1 180 A 179 179.00001 0 0 0 180 359 A 179 179.00001 0 0 0 359 180 A 179 179.00001 0 0 0 180 1 z M 179.84375 51 A 129.00001 128.99999 0 0 1 180 51 A 129.00001 128.99999 0 0 1 309 180 A 129.00001 128.99999 0 0 1 180 309 A 129.00001 128.99999 0 0 1 51 180 A 129.00001 128.99999 0 0 1 179.84375 51 z "
       transform="scale(0.26458333)" />
    <path
       id="path4180"
       style="color:#000000;font-style:normal;font-variant:normal;font-weight:normal;font-stretch:normal;font-size:medium;line-height:normal;font-family:sans-serif;font-variant-ligatures:normal;font-variant-position:normal;font-variant-caps:normal;font-variant-numeric:normal;font-variant-alternates:normal;font-variant-east-asian:normal;font-feature-settings:normal;font-variation-settings:normal;text-indent:0;text-align:start;text-decoration:none;text-decoration-line:none;text-decoration-style:solid;text-decoration-color:#000000;letter-spacing:normal;word-spacing:normal;text-transform:none;writing-mode:lr-tb;direction:ltr;text-orientation:mixed;dominant-baseline:auto;baseline-shift:baseline;text-anchor:start;white-space:normal;shape-padding:0;shape-margin:0;inline-size:0;clip-rule:nonzero;display:inline;overflow:visible;visibility:visible;opacity:1;isolation:auto;mix-blend-mode:normal;color-interpolation:sRGB;color-interpolation-filters:linearRGB;solid-color:#000000;solid-opacity:1;vector-effect:none;fill:#d9d9d9;fill-opacity:1;fill-rule:nonzero;stroke:none;stroke-width:4.04493px;stroke-linecap:butt;stroke-linejoin:miter;stroke-miterlimit:4;stroke-dasharray:none;stroke-dashoffset:0;stroke-opacity:1;color-rendering:auto;image-rendering:auto;shape-rendering:auto;text-rendering:auto;enable-background:accumulate;stop-color:#000000;stop-opacity:1"
       d="M 161.32031 1.9785156 A 179 179.00001 0 0 0 137.89648 6.0234375 L 222.10547 6.0234375 A 179 179.00001 0 0 0 198.67969 1.9785156 L 161.32031 1.9785156 z M 124.01562 9.9804688 A 179 179.00001 0 0 0 112.96875 14.025391 L 247.03125 14.025391 A 179 179.00001 0 0 0 235.98438 9.9804688 L 124.01562 9.9804688 z M 103.91797 17.974609 A 179 179.00001 0 0 0 95.839844 22.019531 L 264.16211 22.019531 A 179 179.00001 0 0 0 256.08008 17.974609 L 103.91797 17.974609 z M 88.798828 25.976562 A 179 179.00001 0 0 0 82.289062 30.021484 L 277.70898 30.021484 A 179 179.00001 0 0 0 271.19922 25.976562 L 88.798828 25.976562 z M 76.46875 33.978516 A 179 179.00001 0 0 0 70.990234 38.023438 L 289.01172 38.023438 A 179 179.00001 0 0 0 283.53125 33.978516 L 76.46875 33.978516 z M 66.021484 41.980469 A 179 179.00001 0 0 0 61.292969 46.025391 L 298.70703 46.025391 A 179 179.00001 0 0 0 293.98047 41.980469 L 66.021484 41.980469 z M 56.978516 49.974609 A 179 179.00001 0 0 0 52.837891 54.021484 L 152.24609 54.021484 A 128.99999 128.99999 0 0 1 180 51 A 128.99999 128.99999 0 0 1 207.75195 54.021484 L 307.16211 54.021484 A 179 179.00001 0 0 0 303.02148 49.974609 L 56.978516 49.974609 z M 49.039062 57.976562 A 179 179.00001 0 0 0 45.380859 62.023438 L 127.82031 62.023438 A 128.99999 128.99999 0 0 1 138.15234 57.976562 L 49.039062 57.976562 z M 221.84375 57.976562 A 128.99999 128.99999 0 0 1 232.17578 62.023438 L 314.61719 62.023438 A 179 179.00001 0 0 0 310.96289 57.976562 L 221.84375 57.976562 z M 42.015625 65.978516 A 179 179.00001 0 0 0 38.769531 70.025391 L 112.57227 70.025391 A 128.99999 128.99999 0 0 1 119.66797 65.978516 L 42.015625 65.978516 z M 240.33008 65.978516 A 128.99999 128.99999 0 0 1 247.42773 70.025391 L 321.23242 70.025391 A 179 179.00001 0 0 0 317.98438 65.978516 L 240.33008 65.978516 z M 35.779297 73.974609 A 179 179.00001 0 0 0 32.892578 78.019531 L 101 78.019531 A 128.99999 128.99999 0 0 1 106.51758 73.974609 L 35.779297 73.974609 z M 253.48242 73.974609 A 128.99999 128.99999 0 0 1 259 78.019531 L 327.10742 78.019531 A 179 179.00001 0 0 0 324.2207 73.974609 L 253.48242 73.974609 z M 30.226562 81.976562 A 179 179.00001 0 0 0 27.65625 86.021484 L 91.630859 86.021484 A 128.99999 128.99999 0 0 1 96.142578 81.976562 L 30.226562 81.976562 z M 263.85742 81.976562 A 128.99999 128.99999 0 0 1 268.36719 86.021484 L 332.3457 86.021484 A 179 179.00001 0 0 0 329.77344 81.976562 L 263.85742 81.976562 z M 25.283203 89.978516 A 179 179.00001 0 0 0 23 94.023438 L 83.830078 94.023438 A 128.99999 128.99999 0 0 1 87.603516 89.978516 L 25.283203 89.978516 z M 272.39453 89.978516 A 128.99999 128.99999 0 0 1 276.17188 94.023438 L 337 94.023438 A 179 179.00001 0 0 0 334.71484 89.978516 L 272.39453 89.978516 z M 20.898438 97.980469 A 179 179.00001 0 0 0 18.875 102.02539 L 77.234375 102.02539 A 128.99999 128.99999 0 0 1 80.433594 97.980469 L 20.898438 97.980469 z M 279.56641 97.980469 A 128.99999 128.99999 0 0 1 282.76562 102.02539 L 341.12305 102.02539 A 179 179.00001 0 0 0 339.10352 97.980469 L 279.56641 97.980469 z M 17.023438 105.97461 A 179 179.00001 0 0 0 15.246094 110.01953 L 71.632812 110.01953 A 128.99999 128.99999 0 0 1 74.353516 105.97461 L 17.023438 105.97461 z M 285.64648 105.97461 A 128.99999 128.99999 0 0 1 288.36914 110.01953 L 344.75391 110.01953 A 179 179.00001 0 0 0 342.97461 105.97461 L 285.64648 105.97461 z M 13.621094 113.97656 A 179 179.00001 0 0 0 12.074219 118.02148 L 66.865234 118.02148 A 128.99999 128.99999 0 0 1 69.177734 113.97656 L 13.621094 113.97656 z M 290.82227 113.97656 A 128.99999 128.99999 0 0 1 293.13477 118.02148 L 347.92773 118.02148 A 179 179.00001 0 0 0 346.37891 113.97656 L 290.82227 113.97656 z M 10.666016 121.97852 A 179 179.00001 0 0 0 9.3320312 126.02344 L 62.835938 126.02344 A 128.99999 128.99999 0 0 1 64.785156 121.97852 L 10.666016 121.97852 z M 295.21484 121.97852 A 128.99999 128.99999 0 0 1 297.16406 126.02344 L 350.66797 126.02344 A 179 179.00001 0 0 0 349.33594 121.97852 L 295.21484 121.97852 z M 8.1328125 129.98047 A 179 179.00001 0 0 0 7.0058594 134.02539 L 59.470703 134.02539 A 128.99999 128.99999 0 0 1 61.09375 129.98047 L 8.1328125 129.98047 z M 298.90625 129.98047 A 128.99999 128.99999 0 0 1 300.5293 134.02539 L 352.99414 134.02539 A 179 179.00001 0 0 0 351.86914 129.98047 L 298.90625 129.98047 z M 6.0039062 137.97461 A 179 179.00001 0 0 0 5.0761719 142.01953 L 56.71875 142.01953 A 128.99999 128.99999 0 0 1 58.039062 137.97461 L 6.0039062 137.97461 z M 301.96289 137.97461 A 128.99999 128.99999 0 0 1 303.28125 142.01953 L 354.92383 142.01953 A 179 179.00001 0 0 0 353.99609 137.97461 L 301.96289 137.97461 z M 4.2636719 145.97656 A 179 179.00001 0 0 0 3.5292969 150.02148 L 54.533203 150.02148 A 128.99999 128.99999 0 0 1 55.568359 145.97656 L 4.2636719 145.97656 z M 304.43359 145.97656 A 128.99999 128.99999 0 0 1 305.4668 150.02148 L 356.47266 150.02148 A 179 179.00001 0 0 0 355.73633 145.97656 L 304.43359 145.97656 z M 2.9023438 153.97852 A 179 179.00001 0 0 0 2.3535156 158.02344 L 52.884766 158.02344 A 128.99999 128.99999 0 0 1 53.652344 153.97852 L 2.9023438 153.97852 z M 306.34766 153.97852 A 128.99999 128.99999 0 0 1 307.11328 158.02344 L 357.64453 158.02344 A 179 179.00001 0 0 0 357.09766 153.97852 L 306.34766 153.97852 z M 1.9082031 161.98047 A 179 179.00001 0 0 0 1.546875 166.02539 L 51.759766 166.02539 A 128.99999 128.99999 0 0 1 52.263672 161.98047 L 1.9082031 161.98047 z M 307.73438 161.98047 A 128.99999 128.99999 0 0 1 308.24023 166.02539 L 358.45117 166.02539 A 179 179.00001 0 0 0 358.08984 161.98047 L 307.73438 161.98047 z M 1.28125 169.97461 A 179 179.00001 0 0 0 1.0996094 174.02148 L 51.138672 174.02148 A 128.99999 128.99999 0 0 1 51.390625 169.97461 L 1.28125 169.97461 z M 308.60938 169.97461 A 128.99999 128.99999 0 0 1 308.86133 174.02148 L 358.90039 174.02148 A 179 179.00001 0 0 0 358.71875 169.97461 L 308.60938 169.97461 z M 1.0117188 177.97656 A 179 179.00001 0 0 0 1 180 A 179 179.00001 0 0 0 1.0117188 182.02344 L 51.015625 182.02344 A 128.99999 128.99999 0 0 1 51 180 A 128.99999 128.99999 0 0 1 51.015625 177.97656 L 1.0117188 177.97656 z M 308.98438 177.97656 A 128.99999 128.99999 0 0 1 309 180 A 128.99999 128.99999 0 0 1 308.98438 182.02344 L 358.98828 182.02344 A 179 179.00001 0 0 0 359 180 A 179 179.00001 0 0 0 358.98828 177.97656 L 308.98438 177.97656 z M 1.0996094 185.97852 A 179 179.00001 0 0 0 1.28125 190.02539 L 51.390625 190.02539 A 128.99999 128.99999 0 0 1 51.138672 185.97852 L 1.0996094 185.97852 z M 308.86133 185.97852 A 128.99999 128.99999 0 0 1 308.60938 190.02539 L 358.71875 190.02539 A 179 179.00001 0 0 0 358.90039 185.97852 L 308.86133 185.97852 z M 1.5488281 193.97461 A 179 179.00001 0 0 0 1.9101562 198.01953 L 52.265625 198.01953 A 128.99999 128.99999 0 0 1 51.759766 193.97461 L 1.5488281 193.97461 z M 308.24023 193.97461 A 128.99999 128.99999 0 0 1 307.73633 198.01953 L 358.08984 198.01953 A 179 179.00001 0 0 0 358.45312 193.97461 L 308.24023 193.97461 z M 2.3554688 201.97656 A 179 179.00001 0 0 0 2.9023438 206.02148 L 53.652344 206.02148 A 128.99999 128.99999 0 0 1 52.886719 201.97656 L 2.3554688 201.97656 z M 307.11523 201.97656 A 128.99999 128.99999 0 0 1 306.34766 206.02148 L 357.09766 206.02148 A 179 179.00001 0 0 0 357.64648 201.97656 L 307.11523 201.97656 z M 3.5273438 209.97852 A 179 179.00001 0 0 0 4.2636719 214.02344 L 55.566406 214.02344 A 128.99999 128.99999 0 0 1 54.533203 209.97852 L 3.5273438 209.97852 z M 305.4668 209.97852 A 128.99999 128.99999 0 0 1 304.43164 214.02344 L 355.73633 214.02344 A 179 179.00001 0 0 0 356.4707 209.97852 L 305.4668 209.97852 z M 5.0761719 217.98047 A 179 179.00001 0 0 0 6.0039062 222.02539 L 58.037109 222.02539 A 128.99999 128.99999 0 0 1 56.71875 217.98047 L 5.0761719 217.98047 z M 303.28125 217.98047 A 128.99999 128.99999 0 0 1 301.96094 222.02539 L 353.99609 222.02539 A 179 179.00001 0 0 0 354.92383 217.98047 L 303.28125 217.98047 z M 7.0058594 225.97461 A 179 179.00001 0 0 0 8.1308594 230.01953 L 61.09375 230.01953 A 128.99999 128.99999 0 0 1 59.470703 225.97461 L 7.0058594 225.97461 z M 300.5293 225.97461 A 128.99999 128.99999 0 0 1 298.90625 230.01953 L 351.86719 230.01953 A 179 179.00001 0 0 0 352.99414 225.97461 L 300.5293 225.97461 z M 9.3320312 233.97656 A 179 179.00001 0 0 0 10.664062 238.02148 L 64.785156 238.02148 A 128.99999 128.99999 0 0 1 62.835938 233.97656 L 9.3320312 233.97656 z M 297.16406 233.97656 A 128.99999 128.99999 0 0 1 295.21484 238.02148 L 349.33398 238.02148 A 179 179.00001 0 0 0 350.66797 233.97656 L 297.16406 233.97656 z M 12.072266 241.97852 A 179 179.00001 0 0 0 13.621094 246.02344 L 69.177734 246.02344 A 128.99999 128.99999 0 0 1 66.865234 241.97852 L 12.072266 241.97852 z M 293.13477 241.97852 A 128.99999 128.99999 0 0 1 290.82227 246.02344 L 346.37891 246.02344 A 179 179.00001 0 0 0 347.92578 241.97852 L 293.13477 241.97852 z M 15.246094 249.98047 A 179 179.00001 0 0 0 17.025391 254.02539 L 74.353516 254.02539 A 128.99999 128.99999 0 0 1 71.630859 249.98047 L 15.246094 249.98047 z M 288.36719 249.98047 A 128.99999 128.99999 0 0 1 285.64648 254.02539 L 342.97656 254.02539 A 179 179.00001 0 0 0 344.75391 249.98047 L 288.36719 249.98047 z M 18.876953 257.97461 A 179 179.00001 0 0 0 20.896484 262.01953 L 80.433594 262.01953 A 128.99999 128.99999 0 0 1 77.234375 257.97461 L 18.876953 257.97461 z M 282.76562 257.97461 A 128.99999 128.99999 0 0 1 279.56641 262.01953 L 339.10156 262.01953 A 179 179.00001 0 0 0 341.125 257.97461 L 282.76562 257.97461 z M 23 265.97656 A 179 179.00001 0 0 0 25.285156 270.02148 L 87.605469 270.02148 A 128.99999 128.99999 0 0 1 83.828125 265.97656 L 23 265.97656 z M 276.16992 265.97656 A 128.99999 128.99999 0 0 1 272.39648 270.02148 L 334.7168 270.02148 A 179 179.00001 0 0 0 337 265.97656 L 276.16992 265.97656 z M 27.654297 273.97852 A 179 179.00001 0 0 0 30.226562 278.02344 L 96.142578 278.02344 A 128.99999 128.99999 0 0 1 91.632812 273.97852 L 27.654297 273.97852 z M 268.36914 273.97852 A 128.99999 128.99999 0 0 1 263.85742 278.02344 L 329.77344 278.02344 A 179 179.00001 0 0 0 332.34375 273.97852 L 268.36914 273.97852 z M 32.892578 281.98047 A 179 179.00001 0 0 0 35.779297 286.02539 L 106.51758 286.02539 A 128.99999 128.99999 0 0 1 101 281.98047 L 32.892578 281.98047 z M 259 281.98047 A 128.99999 128.99999 0 0 1 253.48242 286.02539 L 324.2207 286.02539 A 179 179.00001 0 0 0 327.10742 281.98047 L 259 281.98047 z M 38.767578 289.97461 A 179 179.00001 0 0 0 42.015625 294.02148 L 119.66992 294.02148 A 128.99999 128.99999 0 0 1 112.57227 289.97461 L 38.767578 289.97461 z M 247.42773 289.97461 A 128.99999 128.99999 0 0 1 240.33203 294.02148 L 317.98438 294.02148 A 179 179.00001 0 0 0 321.23047 289.97461 L 247.42773 289.97461 z M 45.382812 297.97656 A 179 179.00001 0 0 0 49.037109 302.02344 L 138.15625 302.02344 A 128.99999 128.99999 0 0 1 127.82422 297.97656 L 45.382812 297.97656 z M 232.17969 297.97656 A 128.99999 128.99999 0 0 1 221.84766 302.02344 L 310.96094 302.02344 A 179 179.00001 0 0 0 314.61914 297.97656 L 232.17969 297.97656 z M 52.837891 305.97852 A 179 179.00001 0 0 0 56.978516 310.02539 L 303.02148 310.02539 A 179 179.00001 0 0 0 307.16211 305.97852 L 207.75391 305.97852 A 128.99999 128.99999 0 0 1 180 309 A 128.99999 128.99999 0 0 1 152.24805 305.97852 L 52.837891 305.97852 z M 61.292969 313.97461 A 179 179.00001 0 0 0 66.019531 318.01953 L 293.97852 318.01953 A 179 179.00001 0 0 0 298.70703 313.97461 L 61.292969 313.97461 z M 70.988281 321.97656 A 179 179.00001 0 0 0 76.46875 326.02148 L 283.53125 326.02148 A 179 179.00001 0 0 0 289.00977 321.97656 L 70.988281 321.97656 z M 82.291016 329.97852 A 179 179.00001 0 0 0 88.800781 334.02344 L 271.20117 334.02344 A 179 179.00001 0 0 0 277.71094 329.97852 L 82.291016 329.97852 z M 95.837891 337.98047 A 179 179.00001 0 0 0 103.91992 342.02539 L 256.08203 342.02539 A 179 179.00001 0 0 0 264.16016 337.98047 L 95.837891 337.98047 z M 112.96875 345.97461 A 179 179.00001 0 0 0 124.01562 350.01953 L 235.98438 350.01953 A 179 179.00001 0 0 0 247.03125 345.97461 L 112.96875 345.97461 z M 137.89453 353.97656 A 179 179.00001 0 0 0 161.31445 358.02148 L 198.67969 358.02148 A 179 179.00001 0 0 0 222.10352 353.97656 L 137.89453 353.97656 z "
       transform="scale(0.26458333)" />
    <path
       d="M 180 0 A 180 180 0 0 0 0 180 A 180 180 0 0 0 180 360 A 180 180 0 0 0 360 180 A 180 180 0 0 0 180 0 z M 180 1 A 179 179 0 0 1 359 180 A 179 179 0 0 1 180 359 A 179 179 0 0 1 1 180 A 179 179 0 0 1 180 1 z "
       style="fill:#000000;stroke-width:0.999999"
       id="path1877"
       transform="scale(0.26458333)" />
  </g>
</svg>
